<svg width="401" height="96" viewBox="0 0 401 96" fill="none" xmlns="http://www.w3.org/2000/svg">
<path d="M71.0508 24.7877L74.7386 30.1383C75.3818 31.0715 74.2215 32.1859 73.315 31.5056L64.2886 24.7316C64.1155 24.6017 63.9049 24.5314 63.6884 24.5314H48.3806C47.8283 24.5314 47.3806 24.0837 47.3806 23.5314V9.5531C47.3806 9.00082 47.8283 8.5531 48.3806 8.5531H69.8742C70.4265 8.5531 70.8742 9.00082 70.8742 9.5531V24.2202C70.8742 24.4229 70.9358 24.6208 71.0508 24.7877Z" fill="#FFB830" stroke="#FFB830"/>
<path d="M24.7295 17.2346L21.0418 22.5852C20.3986 23.5184 21.5589 24.6328 22.4654 23.9525L31.4917 17.1785C31.6649 17.0486 31.8755 16.9783 32.092 16.9783H47.3998C47.9521 16.9783 48.3998 16.5306 48.3998 15.9783V2C48.3998 1.44772 47.9521 1 47.3998 1H25.9062C25.3539 1 24.9062 1.44772 24.9062 2V16.6671C24.9062 16.8698 24.8446 17.0677 24.7295 17.2346Z" fill="#FFB830" stroke="#FFB830"/>
<path d="M21.5791 57.1423H8.97517C8.4454 57.1423 7.91735 57.2024 7.40115 57.3215L6.42598 57.5466C3.24987 58.2795 1 61.1077 1 64.3673V88.2406C1 92.1066 4.134 95.2406 8 95.2406H28.0803C30.2169 95.2406 31.9641 93.5377 32.0188 91.4018L32.3859 77.0849C32.4065 76.2809 32.8239 74.5287 33.5768 74.8111C34.0463 74.9871 40.1105 76.7206 40.597 76.8422L43.5155 77.5718C44.986 77.9394 46.1887 78.2242 47.0522 78.4181C47.3497 78.4849 49.8364 78.6761 50.1413 78.6761C50.8775 78.6761 54.2273 78.3448 55.1107 77.0197C55.229 76.8423 55.3255 76.6827 55.4039 76.5393C55.7883 75.8367 55.6628 74.9133 55.6628 74.1124C55.6628 73.1619 55.2153 72.2668 54.4549 71.6965L54.1435 71.463C53.6898 71.1227 53.1656 70.8883 52.6094 70.7771L47.9327 69.8417L40.2026 67.6331L33.4752 64.7499C32.8108 64.4652 32.1945 64.0792 31.6482 63.6058L26.1636 58.8524C24.8909 57.7495 23.2632 57.1423 21.5791 57.1423Z" fill="#FFB830" stroke="#FFB830"/>
<path d="M27.7579 39.7353C27.7579 47.054 21.825 52.9869 14.5064 52.9869C7.18772 52.9869 1.25479 47.054 1.25479 39.7353C1.25479 32.4167 7.18772 26.4838 14.5064 26.4838C21.825 26.4838 27.7579 32.4167 27.7579 39.7353Z" fill="#FFB830"/>
<path d="M80.4209 56.8804H93.0248C93.5546 56.8804 94.0827 56.9405 94.5989 57.0596L95.574 57.2847C98.7501 58.0176 101 60.8458 101 64.1054V87.9787C101 91.8447 97.866 94.9787 94 94.9787H73.9197C71.7831 94.9787 70.0359 93.2758 69.9812 91.1399L69.6141 76.823C69.5935 76.019 69.1761 74.2668 68.4232 74.5492C67.9537 74.7252 61.8895 76.4587 61.403 76.5803L58.4845 77.3099C57.014 77.6775 55.8113 77.9623 54.9478 78.1562C54.6503 78.223 52.1636 78.4142 51.8587 78.4142C51.1225 78.4142 47.7727 78.0829 46.8893 76.7578C46.771 76.5804 46.6745 76.4208 46.5961 76.2774C46.2117 75.5748 46.3372 74.6514 46.3372 73.8505C46.3372 72.9 46.7847 72.0049 47.5451 71.4346L47.8565 71.2011C48.3102 70.8608 48.8344 70.6264 49.3906 70.5152L54.0673 69.5798L61.7974 67.3712L68.5248 64.488C69.1892 64.2033 69.8055 63.8173 70.3518 63.3439L75.8364 58.5905C77.1091 57.4876 78.7368 56.8804 80.4209 56.8804Z" fill="#FFB830" stroke="#FFB830"/>
<path d="M74.2421 39.4734C74.2421 46.7921 80.175 52.725 87.4937 52.725C94.8123 52.725 100.745 46.7921 100.745 39.4734C100.745 32.1548 94.8123 26.2219 87.4937 26.2219C80.175 26.2219 74.2421 32.1548 74.2421 39.4734Z" fill="#FFB830"/>
<path d="M153.904 39.736H161.392V73H153.904V58.888H141.328V73H133.84V39.736H141.328V52.456H153.904V39.736ZM175.762 73H168.61V47.752H175.762V73ZM176.434 40.456C176.434 41.768 176.002 42.808 175.138 43.576C174.306 44.312 173.314 44.68 172.162 44.68C171.01 44.68 170.002 44.312 169.138 43.576C168.306 42.808 167.89 41.768 167.89 40.456C167.89 39.144 168.306 38.12 169.138 37.384C170.002 36.616 171.01 36.232 172.162 36.232C173.314 36.232 174.306 36.616 175.138 37.384C176.002 38.12 176.434 39.144 176.434 40.456ZM207.637 39.736V46.12H197.605V73H190.117V46.12H180.085V39.736H207.637ZM217.612 56.344C217.612 57.976 217.804 59.448 218.188 60.76C218.604 62.072 219.18 63.208 219.916 64.168C220.684 65.096 221.612 65.816 222.7 66.328C223.788 66.84 225.036 67.096 226.444 67.096C227.82 67.096 229.052 66.84 230.14 66.328C231.26 65.816 232.188 65.096 232.924 64.168C233.692 63.208 234.268 62.072 234.652 60.76C235.068 59.448 235.276 57.976 235.276 56.344C235.276 54.712 235.068 53.24 234.652 51.928C234.268 50.584 233.692 49.448 232.924 48.52C232.188 47.56 231.26 46.824 230.14 46.312C229.052 45.8 227.82 45.544 226.444 45.544C225.036 45.544 223.788 45.816 222.7 46.36C221.612 46.872 220.684 47.608 219.916 48.568C219.18 49.496 218.604 50.632 218.188 51.976C217.804 53.288 217.612 54.744 217.612 56.344ZM243.004 56.344C243.004 59.192 242.572 61.704 241.708 63.88C240.876 66.024 239.724 67.832 238.252 69.304C236.78 70.744 235.02 71.832 232.972 72.568C230.956 73.304 228.78 73.672 226.444 73.672C224.172 73.672 222.028 73.304 220.012 72.568C217.996 71.832 216.236 70.744 214.732 69.304C213.228 67.832 212.044 66.024 211.18 63.88C210.316 61.704 209.884 59.192 209.884 56.344C209.884 53.496 210.332 51 211.228 48.856C212.124 46.68 213.324 44.856 214.828 43.384C216.364 41.912 218.124 40.808 220.108 40.072C222.124 39.336 224.236 38.968 226.444 38.968C228.716 38.968 230.86 39.336 232.876 40.072C234.892 40.808 236.652 41.912 238.156 43.384C239.66 44.856 240.844 46.68 241.708 48.856C242.572 51 243.004 53.496 243.004 56.344ZM249.246 73V39.736H271.71V46.024H256.734V52.552H270.03V58.696H256.734V66.712H272.814V73H249.246ZM278.356 73V39.736H300.628V46.024H285.844V52.984H298.996V59.272H285.844V73H278.356ZM328.142 66.568V73H305.918V39.736H313.406V66.568H328.142Z" fill="#FFB830"/>
</svg>
