<svg width="101" height="96" viewBox="0 0 101 96" fill="none" xmlns="http://www.w3.org/2000/svg">
<path d="M70.5508 24.2877L74.2386 29.6383C74.8818 30.5715 73.7215 31.6859 72.815 31.0056L63.7887 24.2316C63.6155 24.1017 63.4049 24.0314 63.1884 24.0314H47.8806C47.3283 24.0314 46.8806 23.5837 46.8806 23.0314V9.0531C46.8806 8.50082 47.3283 8.0531 47.8806 8.0531H69.3742C69.9265 8.0531 70.3742 8.50082 70.3742 9.0531V23.7202C70.3742 23.9229 70.4358 24.1208 70.5508 24.2877Z" fill="#FFB830"/>
<path fill-rule="evenodd" clip-rule="evenodd" d="M69.3742 8.5531C69.6503 8.5531 69.8742 8.77696 69.8742 9.0531V23.7202C69.8742 24.0242 69.9666 24.3211 70.1391 24.5714L70.5508 24.2877L70.1391 24.5714L73.8269 29.922C74.1485 30.3886 73.5683 30.9459 73.1151 30.6057L64.0887 23.8317C63.829 23.6368 63.5131 23.5314 63.1884 23.5314H47.8806C47.6044 23.5314 47.3806 23.3076 47.3806 23.0314V9.0531C47.3806 8.77696 47.6044 8.5531 47.8806 8.5531H69.3742ZM70.8742 9.0531C70.8742 8.22467 70.2026 7.5531 69.3742 7.5531H47.8806C47.0521 7.5531 46.3806 8.22467 46.3806 9.0531V23.0314C46.3806 23.8599 47.0521 24.5314 47.8806 24.5314H63.1884C63.2966 24.5314 63.4019 24.5666 63.4885 24.6315L72.5148 31.4055C73.8746 32.426 75.615 30.7544 74.6503 29.3545L70.9625 24.004C70.905 23.9205 70.8742 23.8216 70.8742 23.7202V9.0531Z" fill="#FFB830"/>
<path d="M24.2295 16.7346L20.5418 22.0852C19.8986 23.0184 21.0589 24.1328 21.9654 23.4525L30.9917 16.6785C31.1649 16.5486 31.3755 16.4783 31.592 16.4783H46.8998C47.4521 16.4783 47.8998 16.0306 47.8998 15.4783V1.5C47.8998 0.947715 47.4521 0.5 46.8998 0.5H25.4062C24.8539 0.5 24.4062 0.947716 24.4062 1.5V16.1671C24.4062 16.3698 24.3446 16.5677 24.2295 16.7346Z" fill="#FFB830"/>
<path fill-rule="evenodd" clip-rule="evenodd" d="M25.4061 1C25.13 1 24.9061 1.22386 24.9061 1.5V16.1671C24.9061 16.4711 24.8137 16.768 24.6412 17.0183L24.2295 16.7346L24.6412 17.0183L20.9535 22.3689C20.6319 22.8355 21.212 23.3927 21.6653 23.0526L30.6916 16.2786C30.9513 16.0837 31.2672 15.9783 31.5919 15.9783H46.8998C47.1759 15.9783 47.3998 15.7545 47.3998 15.4783V1.5C47.3998 1.22386 47.1759 1 46.8998 1H25.4061ZM23.9061 1.5C23.9061 0.671574 24.5777 0 25.4061 0H46.8998C47.7282 0 48.3998 0.671573 48.3998 1.5V15.4783C48.3998 16.3068 47.7282 16.9783 46.8998 16.9783H31.5919C31.4837 16.9783 31.3784 17.0135 31.2918 17.0784L22.2655 23.8524C20.9058 24.8729 19.1653 23.2013 20.1301 21.8014L23.8178 16.4509C23.8753 16.3674 23.9061 16.2685 23.9061 16.1671V1.5Z" fill="#FFB830"/>
<path d="M21.0791 56.6423H8.47517C7.9454 56.6423 7.41735 56.7024 6.90115 56.8215L5.92598 57.0466C2.74987 57.7795 0.5 60.6077 0.5 63.8673V87.7406C0.5 91.6066 3.634 94.7406 7.5 94.7406H27.5803C29.7169 94.7406 31.4641 93.0377 31.5188 90.9018L31.8859 76.5849C31.9065 75.7809 32.3239 74.0287 33.0768 74.3111C33.5463 74.4871 39.6105 76.2206 40.097 76.3422L43.0155 77.0718C44.486 77.4394 45.6887 77.7242 46.5522 77.9181C46.8497 77.9849 49.3364 78.1761 49.6413 78.1761C50.3775 78.1761 53.7273 77.8448 54.6107 76.5197C54.729 76.3423 54.8255 76.1827 54.9039 76.0393C55.2883 75.3367 55.1628 74.4133 55.1628 73.6124C55.1628 72.6619 54.7153 71.7668 53.9549 71.1965L53.6435 70.963C53.1898 70.6227 52.6656 70.3883 52.1094 70.2771L47.4327 69.3417L39.7026 67.1331L32.9752 64.2499C32.3108 63.9652 31.6945 63.5792 31.1482 63.1058L25.6636 58.3524C24.3909 57.2495 22.7632 56.6423 21.0791 56.6423Z" fill="#FFB830"/>
<path fill-rule="evenodd" clip-rule="evenodd" d="M6.78872 56.3343C7.34179 56.2067 7.90756 56.1423 8.47517 56.1423H21.0791C22.8835 56.1423 24.6275 56.7928 25.991 57.9746L31.4756 62.7279C31.9829 63.1675 32.5552 63.526 33.1722 63.7904L39.8705 66.6611L47.5506 68.8554L52.2075 69.7868C52.8368 69.9126 53.43 70.1779 53.9435 70.563L54.2549 70.7965C55.1412 71.4613 55.6628 72.5045 55.6628 73.6124C55.6628 73.7363 55.667 73.8836 55.6715 74.0411C55.6792 74.3136 55.6877 74.6168 55.6771 74.8826C55.6592 75.3325 55.5889 75.829 55.3426 76.2793C55.2563 76.4369 55.1521 76.609 55.0267 76.797C54.7349 77.2348 54.2688 77.5527 53.7827 77.7877C53.2892 78.0262 52.7272 78.2021 52.187 78.3311C51.1105 78.5884 50.05 78.6761 49.6413 78.6761C49.4635 78.6761 48.7399 78.6258 48.0538 78.5706C47.7038 78.5424 47.3525 78.512 47.0689 78.4843C46.8038 78.4584 46.5547 78.4311 46.4426 78.406C45.5744 78.211 44.3677 77.9252 42.8943 77.5569L39.9757 76.8272C39.7215 76.7637 38.0718 76.2964 36.4423 75.8275C34.8734 75.3761 33.2614 74.9059 32.9288 74.7892C32.9259 74.7916 32.9227 74.7945 32.9191 74.7978C32.8518 74.8614 32.7614 75 32.6711 75.2261C32.494 75.6693 32.3947 76.2492 32.3858 76.5977L32.0187 90.9146C31.9569 93.3215 29.988 95.2406 27.5803 95.2406H7.5C3.35786 95.2406 0 91.8828 0 87.7406V63.8673C0 60.3749 2.41057 57.3447 5.81355 56.5594L6.78872 56.3343ZM8.47517 57.1423C7.98324 57.1423 7.49291 57.1981 7.01358 57.3087L6.03841 57.5338C3.08916 58.2144 1 60.8405 1 63.8673V87.7406C1 91.3305 3.91015 94.2406 7.5 94.2406H27.5803C29.4457 94.2406 30.9712 92.7538 31.019 90.889L31.3861 76.572C31.3978 76.1166 31.5174 75.4184 31.7424 74.8551C31.8532 74.5779 32.0095 74.2813 32.2329 74.0705C32.4786 73.8386 32.8409 73.6886 33.2524 73.8429C33.4629 73.9218 35.0658 74.391 36.7188 74.8665C38.3604 75.3389 39.9861 75.7991 40.2182 75.8571L43.1368 76.5867C44.6043 76.9536 45.803 77.2374 46.6617 77.4303C46.6614 77.4302 46.6735 77.4327 46.705 77.4373C46.7338 77.4415 46.7712 77.4464 46.8173 77.4519C46.9092 77.4629 47.0279 77.4755 47.1661 77.489C47.442 77.5159 47.7872 77.5458 48.1341 77.5738C48.8421 77.6308 49.5143 77.6761 49.6413 77.6761C49.9689 77.6761 50.9514 77.5982 51.9546 77.3585C52.4543 77.2391 52.9414 77.0837 53.3475 76.8874C53.7608 76.6876 54.0448 76.4671 54.1947 76.2423C54.3059 76.0755 54.3946 75.9284 54.4653 75.7993C54.6033 75.5469 54.6625 75.2305 54.6779 74.8428C54.6877 74.5966 54.6808 74.3742 54.6734 74.1384C54.6682 73.9738 54.6628 73.8026 54.6628 73.6124C54.6628 72.8192 54.2894 72.0724 53.6549 71.5965L53.3435 71.363C52.9495 71.0675 52.4943 70.8639 52.0113 70.7673L47.3148 69.828L39.5348 67.6052L32.7783 64.7095C32.0664 64.4044 31.406 63.9909 30.8207 63.4836L25.3361 58.7303C24.1543 57.7061 22.6429 57.1423 21.0791 57.1423H8.47517Z" fill="#FFB830"/>
<path d="M27.2579 39.2353C27.2579 46.554 21.325 52.4869 14.0063 52.4869C6.68769 52.4869 0.754761 46.554 0.754761 39.2353C0.754761 31.9167 6.68769 25.9838 14.0063 25.9838C21.325 25.9838 27.2579 31.9167 27.2579 39.2353Z" fill="#FFB830"/>
<path d="M79.9209 56.3804H92.5248C93.0546 56.3804 93.5827 56.4405 94.0989 56.5596L95.074 56.7847C98.2501 57.5176 100.5 60.3458 100.5 63.6054V87.4787C100.5 91.3447 97.366 94.4787 93.5 94.4787H73.4197C71.2831 94.4787 69.5359 92.7758 69.4812 90.6399L69.1141 76.323C69.0935 75.519 68.6761 73.7668 67.9232 74.0492C67.4537 74.2252 61.3895 75.9587 60.903 76.0803L57.9845 76.8099C56.514 77.1775 55.3113 77.4623 54.4478 77.6562C54.1503 77.723 51.6636 77.9142 51.3587 77.9142C50.6225 77.9142 47.2727 77.5829 46.3893 76.2578C46.271 76.0804 46.1745 75.9208 46.0961 75.7774C45.7117 75.0748 45.8372 74.1514 45.8372 73.3505C45.8372 72.4 46.2847 71.5049 47.0451 70.9346L47.3565 70.7011C47.8102 70.3608 48.3344 70.1264 48.8906 70.0152L53.5673 69.0798L61.2974 66.8712L68.0248 63.988C68.6892 63.7033 69.3055 63.3173 69.8518 62.8439L75.3364 58.0905C76.6091 56.9876 78.2368 56.3804 79.9209 56.3804Z" fill="#FFB830"/>
<path fill-rule="evenodd" clip-rule="evenodd" d="M94.2113 56.0724C93.6582 55.9448 93.0924 55.8804 92.5248 55.8804H79.9209C78.1165 55.8804 76.3725 56.5309 75.009 57.7127L69.5244 62.466C69.0171 62.9056 68.4448 63.264 67.8278 63.5285L61.1295 66.3992L53.4494 68.5935L48.7925 69.5249C48.1632 69.6507 47.57 69.916 47.0565 70.3011L46.7451 70.5346C45.8588 71.1994 45.3372 72.2426 45.3372 73.3505C45.3372 73.4744 45.333 73.6217 45.3285 73.7792C45.3208 74.0517 45.3123 74.3549 45.3229 74.6207C45.3408 75.0706 45.4111 75.5671 45.6574 76.0174C45.7437 76.175 45.8479 76.3471 45.9733 76.5351C46.2651 76.9729 46.7312 77.2908 47.2173 77.5258C47.7108 77.7643 48.2728 77.9402 48.813 78.0692C49.8895 78.3265 50.95 78.4142 51.3587 78.4142C51.5365 78.4142 52.2601 78.3639 52.9462 78.3087C53.2962 78.2805 53.6475 78.25 53.9311 78.2224C54.1962 78.1965 54.4453 78.1692 54.5574 78.1441C55.4256 77.9491 56.6323 77.6633 58.1057 77.295L61.0243 76.5653C61.2785 76.5018 62.9282 76.0345 64.5577 75.5656C66.1266 75.1142 67.7386 74.644 68.0712 74.5273C68.0741 74.5297 68.0773 74.5326 68.0809 74.5359C68.1482 74.5994 68.2386 74.7381 68.3289 74.9642C68.506 75.4074 68.6053 75.9873 68.6142 76.3358L68.9813 90.6527C69.0431 93.0596 71.012 94.9787 73.4197 94.9787H93.5C97.6421 94.9787 101 91.6208 101 87.4787V63.6054C101 60.113 98.5894 57.0828 95.1864 56.2975L94.2113 56.0724ZM92.5248 56.8804C93.0168 56.8804 93.5071 56.9362 93.9864 57.0468L94.9616 57.2719C97.9108 57.9525 100 60.5786 100 63.6054V87.4787C100 91.0686 97.0899 93.9787 93.5 93.9787H73.4197C71.5543 93.9787 70.0288 92.4919 69.981 90.6271L69.6139 76.3101C69.6022 75.8547 69.4826 75.1565 69.2576 74.5932C69.1468 74.316 68.9905 74.0194 68.7671 73.8086C68.5214 73.5767 68.1591 73.4267 67.7476 73.581C67.5371 73.6599 65.9342 74.1291 64.2812 74.6046C62.6396 75.077 61.0139 75.5372 60.7818 75.5952L57.8632 76.3248C56.3957 76.6917 55.197 76.9755 54.3383 77.1684C54.3386 77.1683 54.3265 77.1708 54.295 77.1754C54.2662 77.1796 54.2288 77.1845 54.1827 77.19C54.0908 77.201 53.9721 77.2136 53.8339 77.2271C53.558 77.254 53.2128 77.2839 52.8659 77.3119C52.1579 77.3689 51.4857 77.4142 51.3587 77.4142C51.0311 77.4142 50.0486 77.3363 49.0454 77.0966C48.5457 76.9772 48.0586 76.8218 47.6525 76.6255C47.2392 76.4257 46.9552 76.2052 46.8053 75.9804C46.6941 75.8136 46.6054 75.6665 46.5347 75.5374C46.3967 75.285 46.3375 74.9686 46.3221 74.5809C46.3123 74.3347 46.3192 74.1123 46.3266 73.8765C46.3318 73.7119 46.3372 73.5407 46.3372 73.3505C46.3372 72.5573 46.7106 71.8105 47.3451 71.3346L47.6565 71.1011C48.0505 70.8056 48.5057 70.602 48.9887 70.5054L53.6852 69.5661L61.4652 67.3433L68.2217 64.4476C68.9336 64.1425 69.594 63.729 70.1793 63.2217L75.6639 58.4684C76.8457 57.4442 78.3571 56.8804 79.9209 56.8804H92.5248Z" fill="#FFB830"/>
<path d="M73.7421 38.9734C73.7421 46.2921 79.675 52.225 86.9937 52.225C94.3123 52.225 100.245 46.2921 100.245 38.9734C100.245 31.6548 94.3123 25.7219 86.9937 25.7219C79.675 25.7219 73.7421 31.6548 73.7421 38.9734Z" fill="#FFB830"/>
</svg>
